# xmcd
#
# Track frame offsets:
#	150
#	6330
#	23649
#	42765
#	63285
#	80280
#	99995
#	125290
#	141683
#	159600
#	182502
#	201825
#	222635
#	237610
#	255635
#	276620
#	311485
#
# Disc length: 4435 seconds
#
# Revision: 2
# Processed by: cddbd v1.5.2PL0 Copyright (c) Steve Scherf et al.
# Submitted via: EasyCDDAExtractor 15.3.0.1
#
DISCID=f7115111
DTITLE=Myriam Hernandez - El Amor En Concierto
DYEAR=2002
DGENRE=Latin
TTITLE0=Obertura
TTITLE1=Herida
TTITLE2=Mio
TTITLE3=No Puedo Olvidarte
TTITLE4=Quiero Saber
TTITLE5=Se Me Fue
TTITLE6=La Fuerza Del Amor
TTITLE7=Un Hombre Secreto
TTITLE8=Leña Y Fuego
TTITLE9=Huele A Peligro
TTITLE10=Peligroso Amor
TTITLE11=Mañana
TTITLE12=Camino Sin Camino
TTITLE13=Adagio
TTITLE14=Ay Amor
TTITLE15=Homenaje A Violeta Parra (Casamiento De Negros, Volver A Los 17, Grac
TTITLE15=ias A La Vida)
TTITLE16=El Hombre Que Yo Amo
EXTD=
EXTT0=
EXTT1=
EXTT2=
EXTT3=
EXTT4=
EXTT5=
EXTT6=
EXTT7=
EXTT8=
EXTT9=
EXTT10=
EXTT11=
EXTT12=
EXTT13=
EXTT14=
EXTT15=
EXTT16=
PLAYORDER=
